<?xml version="1.0" standalone="no"?>
<!DOCTYPE svg PUBLIC "-//W3C//DTD SVG 20010904//EN"
 "http://www.w3.org/TR/2001/REC-SVG-20010904/DTD/svg10.dtd">
<svg version="1.0" xmlns="http://www.w3.org/2000/svg"
 width="1041.000000pt" height="1280.000000pt" viewBox="0 0 1041.000000 1280.000000"
 preserveAspectRatio="xMidYMid meet">

<g transform="translate(0.000000,1280.000000) scale(0.100000,-0.100000)"
fill="#000000" stroke="none">
<path d="M5241 12790 c-186 -10 -234 -23 -280 -76 -57 -65 -62 -143 -14 -217
48 -75 39 -74 595 -69 654 6 1006 -13 1363 -74 813 -140 1547 -522 2132 -1111
594 -598 988 -1387 1010 -2023 6 -165 -11 -342 -62 -645 -49 -289 -146 -543
-416 -1085 -366 -735 -881 -1356 -1539 -1854 -533 -404 -1125 -700 -1695 -846
-264 -68 -372 -82 -701 -87 -837 -14 -1455 66 -2082 269 -547 177 -1119 468
-1567 798 -347 255 -868 716 -1045 925 -493 582 -652 1257 -529 2244 45 365
127 564 259 631 19 9 89 30 155 44 66 15 303 72 526 127 411 100 479 112 479
84 0 -8 -16 -63 -35 -122 -44 -135 -79 -276 -106 -428 -30 -170 -38 -505 -15
-665 49 -341 171 -603 383 -821 178 -184 407 -311 678 -378 157 -38 228 -46
420 -46 208 1 269 11 433 76 570 226 1141 870 1366 1539 76 227 90 312 90 550
1 231 -11 295 -80 458 -30 69 -34 86 -23 93 8 5 261 9 563 9 l548 0 -5 -27
c-2 -16 -27 -78 -55 -138 -99 -217 -180 -492 -218 -740 -25 -166 -25 -480 0
-620 77 -426 301 -717 662 -862 272 -110 702 -168 1052 -145 919 63 1803 554
2097 1167 134 280 147 546 36 763 -25 48 -23 53 35 105 57 50 78 107 72 192
-53 658 -2128 1036 -4913 895 -981 -50 -1844 -150 -2463 -287 -155 -34 -164
-35 -200 -20 -25 10 -82 17 -174 20 -154 6 -191 17 -196 59 -5 44 67 103 356
294 342 227 427 309 377 364 -10 11 -28 20 -41 20 -12 0 -133 -27 -268 -60
-265 -65 -265 -64 -251 -51 8 7 623 294 1545 721 85 39 161 78 169 85 12 11
12 19 3 40 -9 20 -19 25 -49 25 -58 0 -706 -125 -866 -167 -171 -45 -139 -10
83 93 209 96 657 320 855 427 l170 92 186 -3 c179 -2 187 -1 219 20 73 50 99
170 52 235 -54 76 -168 114 -342 114 -268 0 -457 -68 -969 -348 -1014 -555
-1727 -1122 -2242 -1783 -97 -124 -244 -347 -319 -483 -104 -189 -117 -206
-189 -243 -35 -18 -72 -41 -83 -51 -52 -47 -62 -131 -27 -214 23 -54 23 -54
-15 -184 -91 -307 -145 -805 -133 -1235 4 -118 13 -260 22 -315 72 -465 311
-997 604 -1347 168 -200 733 -707 1076 -965 345 -259 755 -503 1080 -641 77
-33 222 -94 323 -137 101 -43 186 -83 189 -90 2 -8 -16 -39 -41 -70 -126 -153
-218 -432 -265 -795 -36 -280 -43 -445 -42 -1094 l1 -629 -41 -89 c-53 -116
-67 -194 -51 -290 7 -40 23 -95 36 -123 54 -118 175 -225 309 -273 63 -23 87
-27 192 -26 105 0 129 4 191 27 85 32 84 32 84 9 0 -14 -13 -22 -52 -31 -71
-19 -210 -91 -289 -151 -187 -141 -366 -387 -434 -595 -67 -205 -30 -371 95
-435 77 -39 130 -41 1135 -38 1078 3 999 -2 1081 70 102 90 99 244 -7 516 -35
87 -51 115 -88 151 l-46 44 255 -7 c270 -8 485 -20 510 -30 13 -5 15 -49 15
-304 0 -343 4 -363 81 -430 77 -69 51 -67 924 -67 799 0 956 6 1149 41 186 34
258 116 231 262 -26 142 -132 305 -325 497 -153 153 -272 244 -405 308 l-86
42 76 50 c88 59 142 131 180 240 22 65 24 84 25 275 0 200 1 206 25 250 25 44
25 49 28 315 4 274 -10 663 -28 790 -24 166 -162 622 -279 917 -103 260 -246
533 -338 642 -27 32 -20 50 25 61 54 13 491 236 646 329 410 248 730 500 1077
846 281 280 490 531 689 826 443 655 726 1366 829 2079 69 480 49 753 -84
1120 -57 157 -171 415 -260 590 -673 1314 -1784 2056 -3385 2259 -353 45
-1003 66 -1399 46z m-2626 -1259 c-23 -20 -688 -352 -698 -348 -17 6 63 79
152 139 96 65 226 126 371 173 63 20 120 38 125 40 22 7 59 5 50 -4z m-365
-581 c0 -5 -10 -15 -22 -21 -83 -44 -361 -258 -480 -371 -61 -57 -68 -67 -68
-101 0 -80 69 -113 253 -121 49 -3 91 -7 93 -9 3 -2 -82 -26 -188 -51 -106
-26 -326 -85 -488 -131 -368 -105 -500 -139 -507 -131 -10 10 10 44 119 204
130 189 205 285 348 440 127 137 149 150 231 133 98 -21 131 -15 404 78 258
87 305 100 305 81z m2231 -883 c73 -49 153 -202 183 -349 24 -115 22 -352 -4
-479 -102 -498 -631 -1178 -1093 -1404 -157 -76 -280 -105 -453 -105 -397 0
-722 164 -915 463 -121 187 -161 343 -161 632 -1 294 33 527 111 762 40 123
124 318 147 342 8 9 49 17 116 22 57 4 168 15 248 23 338 35 701 67 732 64
l33 -3 6 -420 c8 -508 26 -683 84 -782 82 -138 266 -112 334 48 25 56 33 149
51 584 10 234 34 539 46 577 9 29 66 40 176 33 57 -3 137 -1 178 3 124 15 144
14 181 -11z m2459 3 c196 -9 499 -30 784 -55 32 -3 65 -10 72 -16 12 -9 14
-116 14 -590 0 -603 3 -651 43 -710 40 -59 71 -74 151 -74 63 0 79 4 122 30
87 54 96 84 154 495 51 358 68 536 56 583 -9 39 -54 85 -107 113 -54 27 -67
53 -49 98 9 25 14 27 43 22 17 -3 111 -17 207 -31 225 -33 359 -64 545 -123
l150 -48 -2 -30 c-1 -16 -5 -57 -9 -90 -8 -77 9 -117 79 -182 117 -111 162
-229 138 -366 -25 -146 -98 -300 -200 -428 -67 -85 -115 -130 -229 -217 -412
-312 -914 -495 -1461 -531 -143 -9 -347 -2 -461 16 -399 63 -609 163 -728 346
-157 240 -182 719 -61 1143 59 205 226 583 284 641 26 26 28 27 128 20 56 -3
208 -11 337 -16z m-3249 -5521 c148 -48 279 -127 441 -267 226 -195 399 -404
658 -792 56 -85 122 -176 146 -201 24 -26 47 -64 53 -85 6 -25 9 -367 8 -940
l-1 -902 25 -48 c19 -37 36 -54 74 -74 l50 -25 -50 -3 c-69 -5 -437 15 -614
34 -273 28 -369 51 -412 100 -54 61 -101 226 -119 410 -12 125 -16 867 -5
1034 6 87 4 99 -17 139 -35 68 -66 86 -146 85 -94 -1 -155 -37 -182 -109 -19
-49 -29 -270 -30 -612 0 -318 0 -323 -20 -323 -62 0 -175 93 -211 173 -24 52
-24 52 -27 527 -3 546 15 1003 47 1190 36 206 93 368 186 520 23 38 38 77 42
110 5 42 23 80 37 80 2 0 32 -9 67 -21z m1064 -184 c466 -45 1108 -45 1338 1
89 17 112 14 86 -10 -8 -8 -167 -121 -354 -251 -187 -130 -412 -291 -500 -358
-87 -66 -166 -120 -174 -121 -9 -1 -61 66 -126 160 -136 200 -259 361 -364
479 -78 87 -94 115 -68 115 6 0 80 -7 162 -15z m2135 -62 c34 -31 142 -258
238 -499 117 -294 219 -644 242 -834 14 -116 13 -765 -1 -792 -13 -24 -83 -57
-121 -58 -18 0 -39 12 -62 35 l-36 35 3 258 c2 270 -5 337 -44 414 -45 89
-159 119 -250 66 -68 -40 -75 -60 -69 -207 14 -361 0 -565 -57 -821 -46 -209
-168 -543 -230 -633 -15 -21 -47 -50 -71 -64 l-44 -26 -332 2 c-316 1 -708 16
-789 30 l-39 6 46 32 c87 62 80 -26 87 1058 4 719 8 969 18 997 17 54 147 155
656 509 154 108 350 246 435 307 183 132 318 209 372 211 10 1 31 -11 48 -26z
m393 -2507 c52 -50 62 -82 52 -172 -8 -75 -33 -114 -74 -114 -41 0 -68 25 -76
69 -6 34 9 208 21 249 6 23 32 12 77 -32z m-293 -564 c44 -34 58 -58 33 -56
-7 1 -42 2 -78 3 -74 1 -80 11 -45 69 22 36 21 36 90 -16z m-2872 -296 c175
-40 532 -76 760 -76 104 0 128 -10 69 -29 -39 -13 -95 -65 -108 -99 -15 -39
-10 -114 12 -172 27 -72 34 -116 19 -125 -17 -10 -1603 -6 -1614 5 -29 29 107
243 228 357 108 102 152 124 275 135 53 5 119 13 146 17 81 13 101 12 213 -13z
m2222 -131 c92 -54 131 -57 292 -26 217 42 432 48 652 20 98 -13 149 -38 249
-124 87 -75 250 -261 244 -279 -6 -20 -129 -23 -848 -25 -616 -1 -708 1 -719
14 -9 11 -11 56 -6 182 8 234 7 225 36 240 33 17 69 16 100 -2z"/>
<path d="M5735 3411 c-146 -36 -218 -197 -147 -332 41 -80 94 -113 185 -117
64 -3 78 0 127 25 40 21 63 42 84 77 109 175 -49 395 -249 347z"/>
<path d="M3734 6125 c-68 -40 -94 -130 -60 -208 21 -49 53 -73 152 -110 106
-41 206 -90 364 -181 107 -61 119 -66 176 -66 103 0 164 62 164 166 0 54 -26
106 -73 145 -58 50 -362 213 -475 255 -88 34 -191 33 -248 -1z"/>
</g>
</svg>
